<?xml version="1.0" encoding="UTF-8" standalone="no"?>
<!-- Created with Inkscape (http://www.inkscape.org/) -->

<svg
   xmlns:dc="http://purl.org/dc/elements/1.1/"
   xmlns:cc="http://creativecommons.org/ns#"
   xmlns:rdf="http://www.w3.org/1999/02/22-rdf-syntax-ns#"
   xmlns:svg="http://www.w3.org/2000/svg"
   xmlns="http://www.w3.org/2000/svg"
   xmlns:sodipodi="http://sodipodi.sourceforge.net/DTD/sodipodi-0.dtd"
   xmlns:inkscape="http://www.inkscape.org/namespaces/inkscape"
   version="1.1"
   id="svg64"
   width="16"
   height="16"
   viewBox="0 0 16 16"
   sodipodi:docname="16-actions-minuet-singing.svg"
   inkscape:version="0.92.4 5da689c313, 2019-01-14">
  <metadata
     id="metadata70">
    <rdf:RDF>
      <cc:Work
         rdf:about="">
        <dc:format>image/svg+xml</dc:format>
        <dc:type
           rdf:resource="http://purl.org/dc/dcmitype/StillImage" />
        <dc:title></dc:title>
      </cc:Work>
    </rdf:RDF>
  </metadata>
  <defs
     id="defs68" />
  <sodipodi:namedview
     pagecolor="#ffffff"
     bordercolor="#666666"
     borderopacity="1"
     objecttolerance="10"
     gridtolerance="10"
     guidetolerance="10"
     inkscape:pageopacity="0"
     inkscape:pageshadow="2"
     inkscape:window-width="1366"
     inkscape:window-height="721"
     id="namedview66"
     showgrid="false"
     inkscape:zoom="24.843749"
     inkscape:cx="8.7923953"
     inkscape:cy="9.245249"
     inkscape:window-x="0"
     inkscape:window-y="0"
     inkscape:window-maximized="1"
     inkscape:current-layer="svg64" />
  <path
     inkscape:connector-curvature="0"
     id="path76"
     d="m 6.5307853,15.950484 c -0.061,-0.02647 -0.13802,-0.07263 -0.17112,-0.102578 -0.1724,-0.156019 -0.20619,-0.445421 -0.0751,-0.643464 0.1262,-0.190691 0.23828,-0.22632 0.71371,-0.226887 0.22593,-2.57e-4 0.4291,-0.01211 0.45148,-0.02631 0.0311,-0.01974 0.0386,-0.167812 0.032,-0.628834 l -0.009,-0.60301 -0.38365,-0.07538 c -1.8733,-0.368065 -3.38733,-1.736054 -3.90223,-3.525817 -0.17703,-0.6153363 -0.1803,-0.6576624 -0.19631,-2.5379125 -0.0168,-1.9697523 -0.0187,-1.9503077 0.20637,-2.1220868 l 0.11446,-0.08737 0.68886,-0.00981 c 0.42593,-0.00607 0.70454,-0.022814 0.72992,-0.043878 0.0321,-0.02662 0.0411,-0.2945552 0.0411,-1.2255247 0,-1.3537997 0.0176,-1.5124587 0.22684,-2.0489787 0.35934,-0.9212537 1.1426,-1.63926866 2.08665,-1.91284476 1.14529,-0.3318912 2.3837,-0.016178 3.2154997,0.8197384 0.38998,0.39190596 0.66561,0.86362236 0.83685,1.43218666 0.0689,0.2287673 0.0727,0.3000198 0.0844,1.5723 0.009,0.9944752 0.0221,1.3408599 0.0511,1.3649322 0.0226,0.018791 0.32778,0.036354 0.7309,0.042069 0.75924,0.010763 0.77324,0.014209 0.93433,0.2299036 0.0642,0.08593 0.0662,0.1301671 0.0758,1.6764892 0.0109,1.7564008 -0.01,2.1146564 -0.15486,2.678696 -0.23919,0.9302624 -0.69704,1.7095914 -1.40177,2.3860044 -0.70241,0.674193 -1.5729698,1.120811 -2.5643897,1.315597 l -0.36473,0.07166 -0.009,0.603023 c -0.007,0.461033 8.7e-4,0.609104 0.032,0.628848 0.0224,0.0142 0.22555,0.02604 0.45148,0.02631 0.47544,5.66e-4 0.5875099,0.0362 0.7137099,0.226887 0.13113,0.198157 0.0973,0.487445 -0.0754,0.643662 -0.1636699,0.14812 -0.2174899,0.153077 -1.6475699,0.151753 -1.13122,-0.0011 -1.36989,-0.0091 -1.46274,-0.04937 z m 2.42883,-3.354489 c 0.6842299,-0.177903 1.2495097,-0.486821 1.7456097,-0.953941 0.6442,-0.606564 1.04325,-1.323152 1.21859,-2.1882428 0.0488,-0.240635 0.0565,-0.4673685 0.0567,-1.6691873 l 2.9e-4,-1.3907278 -0.34909,-0.00913 c -0.25776,-0.00674 -0.35591,0.00162 -0.37516,0.031971 -0.0144,0.022605 -0.0263,0.6113877 -0.0266,1.3084058 -3.9e-4,1.0103475 -0.0106,1.3203654 -0.0501,1.5289924 -0.19049,1.0041917 -0.824,1.8425447 -1.7405797,2.3033837 -1.44875,0.728408 -3.23961,0.251785 -4.14033,-1.101915 -0.20243,-0.304233 -0.3044,-0.5229681 -0.42336,-0.9081587 l -0.0853,-0.2761815 -0.01,-1.3747427 c -0.005,-0.7561082 -0.0173,-1.4075803 -0.0263,-1.4477157 -0.0161,-0.071356 -0.0244,-0.072773 -0.37523,-0.063941 l -0.35879,0.00903 -0.009,1.1989033 c -0.005,0.6593968 0.005,1.3427719 0.0228,1.518611 0.17863,1.7975613 1.48586,3.2115893 3.27916,3.5470593 0.18251,0.03414 0.40688,0.04455 0.78329,0.03633 0.4469,-0.0098 0.57882,-0.02486 0.86321,-0.0988 z m -0.40505,-1.794046 c 0.41686,-0.105398 0.8153,-0.348259 1.1072199,-0.674892 0.19112,-0.2138383 0.4564498,-0.716614 0.4422998,-0.8380957 -0.009,-0.078932 -0.0185,-0.082169 -0.2813298,-0.097624 -0.2165,-0.012732 -0.29296,-0.031076 -0.3757199,-0.090143 C 9.1885553,8.9167121 9.1612453,8.5676874 9.3876353,8.341346 9.5136452,8.2153309 9.6723052,8.1686837 9.9757052,8.1684512 L 10.208485,8.1682833 10.199485,7.7766417 10.190485,7.385 9.8867652,7.366818 C 9.5535452,7.346871 9.4863653,7.322428 9.3635353,7.1764566 c -0.15845,-0.18831 -0.17107,-0.4124676 -0.0349,-0.6202737 0.0937,-0.1430464 0.2256399,-0.192733 0.5581399,-0.210233 L 10.190495,6.3299649 V 5.9303308 5.5306963 L 9.8707852,5.5141653 c -0.34251,-0.01771 -0.4418899,-0.056672 -0.5446699,-0.2135424 -0.13814,-0.2108223 -0.11919,-0.4365435 0.0531,-0.63278 C 9.4974252,4.5332186 9.6329252,4.4920597 9.9587052,4.4918255 L 10.206485,4.4916576 V 4.0920231 3.6923886 l -0.2477798,-0.0014 c -0.39707,-0.00225 -0.5727699,-0.090291 -0.6862099,-0.3438598 -0.0967,-0.2161168 -0.021,-0.4532555 0.19044,-0.5969575 0.1016299,-0.069054 0.1546199,-0.080844 0.3634099,-0.080844 0.3132598,0 0.3354998,-0.024347 0.2390398,-0.2616716 C 9.7873052,1.7234451 9.2304953,1.2369834 8.5120353,1.0505469 c -0.27206,-0.070597 -0.75101,-0.070597 -1.02307,0 -0.45718,0.1186354 -0.93002,0.4142756 -1.19868,0.7494674 -0.16684,0.2081545 -0.39985,0.6497061 -0.39985,0.757697 0,0.093059 0.0521,0.1115887 0.31433,0.1117357 0.30968,1.678e-4 0.47152,0.1137984 0.54954,0.3858365 0.0675,0.2353831 -0.11398,0.530631 -0.36983,0.6016637 -0.0695,0.019298 -0.23069,0.035168 -0.35817,0.035266 l -0.23179,1.679e-4 v 0.3996345 0.3996345 l 0.24778,1.918e-4 c 0.41724,2.878e-4 0.57938,0.08488 0.69548,0.3628045 0.0588,0.1407603 0.0424,0.2692787 -0.0546,0.4290683 -0.0983,0.1618761 -0.22383,0.212836 -0.56894,0.2309994 l -0.30372,0.015985 v 0.3996345 0.3996346 l 0.30372,0.015985 c 0.34511,0.018164 0.47061,0.069124 0.56894,0.231013 0.097,0.1596354 0.1134,0.2883228 0.0548,0.4286319 -0.11574,0.2770006 -0.27522,0.3634193 -0.67065,0.3634193 h -0.27278 v 0.3996345 0.3996342 l 0.23179,1.919e-4 c 0.30243,2.158e-4 0.46119,0.046985 0.5871,0.1728948 0.23274,0.2327452 0.19822,0.5832597 -0.0758,0.7694542 -0.10086,0.068533 -0.15459,0.080537 -0.36047,0.080537 -0.13532,0 -0.25767,0.015712 -0.2776,0.035649 -0.0448,0.04482 0.006,0.1980813 0.17331,0.5177291 0.1417,0.2714959 0.50947,0.6546909 0.78281,0.8156349 0.50181,0.295474 1.1316,0.385035 1.69891,0.241599 z"
     style="fill:#070707;stroke-width:0.03197075" />
</svg>
