<?xml version="1.0" encoding="UTF-8" standalone="no"?>
<!-- Created with Inkscape (http://www.inkscape.org/) -->

<svg
   xmlns:dc="http://purl.org/dc/elements/1.1/"
   xmlns:cc="http://creativecommons.org/ns#"
   xmlns:rdf="http://www.w3.org/1999/02/22-rdf-syntax-ns#"
   xmlns:svg="http://www.w3.org/2000/svg"
   xmlns="http://www.w3.org/2000/svg"
   xmlns:sodipodi="http://sodipodi.sourceforge.net/DTD/sodipodi-0.dtd"
   xmlns:inkscape="http://www.inkscape.org/namespaces/inkscape"
   version="1.1"
   id="svg64"
   width="22"
   height="22"
   viewBox="0 0 22 22"
   sodipodi:docname="22-actions-minuet-singing.svg"
   inkscape:version="0.92.4 5da689c313, 2019-01-14">
  <metadata
     id="metadata70">
    <rdf:RDF>
      <cc:Work
         rdf:about="">
        <dc:format>image/svg+xml</dc:format>
        <dc:type
           rdf:resource="http://purl.org/dc/dcmitype/StillImage" />
        <dc:title></dc:title>
      </cc:Work>
    </rdf:RDF>
  </metadata>
  <defs
     id="defs68" />
  <sodipodi:namedview
     pagecolor="#ffffff"
     bordercolor="#666666"
     borderopacity="1"
     objecttolerance="10"
     gridtolerance="10"
     guidetolerance="10"
     inkscape:pageopacity="0"
     inkscape:pageshadow="2"
     inkscape:window-width="1366"
     inkscape:window-height="721"
     id="namedview66"
     showgrid="false"
     inkscape:zoom="24.843749"
     inkscape:cx="8.7923953"
     inkscape:cy="14.075438"
     inkscape:window-x="0"
     inkscape:window-y="0"
     inkscape:window-maximized="1"
     inkscape:current-layer="svg64" />
  <path
     inkscape:connector-curvature="0"
     id="path76"
     d="m 8.9798302,21.931904 c -0.083875,-0.0364 -0.1897775,-0.09987 -0.23529,-0.141044 -0.23705,-0.214526 -0.2835113,-0.612454 -0.1032625,-0.884763 0.173525,-0.262201 0.327635,-0.31119 0.9813513,-0.31197 0.3106537,-3.53e-4 0.590013,-0.01665 0.620785,-0.03618 0.04276,-0.02714 0.05307,-0.230742 0.044,-0.864647 L 10.275039,18.864165 9.7475202,18.760518 C 7.1717326,18.254428 5.0899412,16.373443 4.3819537,13.912519 4.1385374,13.066432 4.1340412,13.008234 4.1120274,10.42289 4.0889274,7.714479 4.0863149,7.7412159 4.3957862,7.5050197 L 4.5531687,7.384886 5.5003512,7.371411 C 6.086005,7.363021 6.4690938,7.340047 6.5039913,7.311076 c 0.044138,-0.036602 0.056513,-0.4050132 0.056513,-1.685097 0,-1.8614747 0.0242,-2.0796308 0.311905,-2.8173459 C 7.3665018,1.5419092 8.4434844,0.55463847 9.7415532,0.17847131 11.316326,-0.27787911 13.01914,0.15622651 14.162865,1.3056117 c 0.536222,0.5388708 0.915215,1.1874809 1.15067,1.9692569 0.09474,0.314555 0.09996,0.4125272 0.116049,2.1619126 0.01238,1.3674037 0.03039,1.8436831 0.07026,1.8767821 0.03107,0.025836 0.450698,0.049981 1.004988,0.057846 1.043955,0.014795 1.063205,0.019539 1.284704,0.3161166 0.08827,0.1181538 0.09102,0.1789811 0.104225,2.3051739 0.01499,2.4150502 -0.01375,2.9076532 -0.212933,3.6832082 -0.328886,1.27911 -0.958429,2.350687 -1.927433,3.280755 -0.965814,0.927016 -2.162833,1.541115 -3.526036,1.808946 l -0.501504,0.09853 -0.01238,0.829156 c -0.0096,0.633921 0.0012,0.837518 0.044,0.864666 0.0308,0.01953 0.310132,0.0358 0.620785,0.03618 0.65373,7.78e-4 0.807827,0.04977 0.981352,0.311969 0.180303,0.272466 0.133787,0.670237 -0.103676,0.885036 -0.225047,0.203665 -0.299049,0.210481 -2.265408,0.20866 -1.555428,-0.0015 -1.8835993,-0.01251 -2.0112681,-0.06788 z m 3.3396408,-4.612422 c 0.940817,-0.244617 1.718076,-0.669379 2.400214,-1.311669 0.885775,-0.834026 1.434469,-1.819334 1.675561,-3.008834 0.0671,-0.330874 0.07769,-0.642632 0.07796,-2.295133 l 3.99e-4,-1.9122511 -0.479999,-0.012512 c -0.35442,-0.00921 -0.489377,0.0022 -0.515845,0.043959 -0.0198,0.031089 -0.03616,0.8406585 -0.03658,1.7990591 -5.37e-4,1.389227 -0.01458,1.815502 -0.06889,2.102364 -0.261924,1.380764 -1.133,2.533499 -2.393297,3.167153 -1.992031,1.001561 -4.4544638,0.346204 -5.6929539,-1.515133 -0.2783413,-0.418321 -0.41855,-0.719081 -0.58212,-1.248719 l -0.1172776,-0.37975 -0.01375,-1.890271 C 6.5660175,9.8180957 6.549105,8.9223217 6.53673,8.8671347 6.5145925,8.7690147 6.50318,8.7670759 6.0207888,8.7792172 l -0.4933363,0.012375 -0.012375,1.6484928 c -0.00687,0.906671 0.00687,1.846312 0.03135,2.088091 0.2456163,2.471646 2.0430576,4.415935 4.5088455,4.877206 0.250951,0.04694 0.55946,0.06126 1.077023,0.04995 0.614488,-0.01347 0.795878,-0.03418 1.186914,-0.13585 z m -0.556943,-2.466814 c 0.573182,-0.144922 1.121037,-0.478856 1.522427,-0.927976 0.26279,-0.294027 0.627619,-0.985344 0.608162,-1.152382 -0.01238,-0.108529 -0.02544,-0.112984 -0.386828,-0.134228 -0.297688,-0.0175 -0.40282,-0.04274 -0.516615,-0.123942 -0.35541,-0.253663 -0.392961,-0.733572 -0.08167,-1.044791 0.173264,-0.173271 0.391421,-0.237411 0.808596,-0.237731 l 0.320072,-2.31e-4 -0.01238,-0.538506 -0.01237,-0.538508 -0.417614,-0.025 C 13.13613,10.101943 13.043758,10.068333 12.874866,9.8676267 12.656998,9.6087005 12.639645,9.3004832 12.826876,9.0147499 12.955713,8.8180617 13.137131,8.7497421 13.594318,8.7256796 l 0.417615,-0.021986 V 8.1541985 7.6047004 L 13.57233,7.5819714 C 13.101379,7.5576204 12.964731,7.5040504 12.823409,7.2883511 12.633466,6.9984709 12.659523,6.6881031 12.896419,6.4182786 13.058958,6.2331706 13.245271,6.176577 13.693218,6.1762552 l 0.340697,-2.31e-4 V 5.6265194 5.077022 l -0.340697,-0.00192 c -0.545971,-0.0031 -0.787559,-0.1241551 -0.943539,-0.4728122 -0.132962,-0.2971606 -0.02887,-0.6232264 0.261855,-0.8208166 0.139742,-0.094949 0.212603,-0.1111605 0.499689,-0.1111605 0.430732,0 0.461312,-0.033477 0.32868,-0.3597985 -0.38236,-0.9407896 -1.147974,-1.6096745 -2.135856,-1.8660247 -0.374083,-0.097071 -1.032639,-0.097071 -1.406721,0 -0.6286208,0.1631237 -1.2787758,0.569629 -1.6481833,1.0305177 -0.229405,0.2862125 -0.5497938,0.893346 -0.5497938,1.0418335 0,0.1279561 0.071637,0.1534344 0.4322038,0.1536366 0.42581,2.307e-4 0.64834,0.1564728 0.7556175,0.5305252 0.092813,0.3236518 -0.1567225,0.7296176 -0.5085163,0.8272876 -0.095562,0.026535 -0.3171987,0.048356 -0.4924838,0.048491 l -0.3187112,2.308e-4 v 0.549498 0.5494968 l 0.3406975,2.64e-4 c 0.573705,3.96e-4 0.7966475,0.11671 0.9562851,0.4988556 0.08085,0.1935463 0.0583,0.3702586 -0.075075,0.5899699 C 9.0542039,7.4876755 8.8816002,7.5577455 8.4070739,7.5827196 l -0.417615,0.021986 V 8.154204 8.7037008 l 0.417615,0.021986 c 0.4745263,0.02497 0.6470888,0.09504 0.7822926,0.3176428 0.133375,0.2194996 0.155925,0.3964442 0.07535,0.5893691 C 9.1055739,10.013576 8.8862889,10.1324 8.3425727,10.1324 H 7.9675001 v 0.549498 0.549497 l 0.3187113,2.64e-4 c 0.4158413,2.97e-4 0.6341363,0.0646 0.8072625,0.237731 0.3200176,0.320024 0.2725526,0.801982 -0.104225,1.057999 -0.1386825,0.09423 -0.2125612,0.110743 -0.4956462,0.110743 -0.1860651,0 -0.3542963,0.0216 -0.3817001,0.04902 -0.0616,0.06163 0.00825,0.272362 0.2383013,0.711878 0.1948375,0.373307 0.7005213,0.9002 1.0763638,1.121498 0.6899893,0.406277 1.5559503,0.529423 2.3360013,0.332199 z"
     style="fill:#070707;stroke-width:0.04395979" />
</svg>
